<?xml version="1.0" encoding="UTF-8" standalone="no"?>
<!-- Created with Inkscape (http://www.inkscape.org/) -->

<svg
   xmlns:dc="http://purl.org/dc/elements/1.1/"
   xmlns:cc="http://creativecommons.org/ns#"
   xmlns:rdf="http://www.w3.org/1999/02/22-rdf-syntax-ns#"
   xmlns:svg="http://www.w3.org/2000/svg"
   xmlns="http://www.w3.org/2000/svg"
   xmlns:sodipodi="http://sodipodi.sourceforge.net/DTD/sodipodi-0.dtd"
   xmlns:inkscape="http://www.inkscape.org/namespaces/inkscape"
   width="600"
   height="300"
   viewBox="0 0 600 300"
   id="svg2"
   version="1.1"
   inkscape:version="0.91 r13725"
   sodipodi:docname="FishBoneLogo.svg"
   inkscape:export-filename="/home/frode/Git/Branch/Urho3D/bin/Data/Textures/FishBoneLogo.png"
   inkscape:export-xdpi="90"
   inkscape:export-ydpi="90">
  <defs
     id="defs4" />
  <sodipodi:namedview
     id="base"
     pagecolor="#808080"
     bordercolor="#666666"
     borderopacity="1.0"
     inkscape:pageopacity="0"
     inkscape:pageshadow="2"
     inkscape:zoom="1"
     inkscape:cx="56.32628"
     inkscape:cy="72.685295"
     inkscape:document-units="px"
     inkscape:current-layer="layer1"
     showgrid="false"
     showborder="true"
     inkscape:snap-global="false"
     inkscape:window-width="1920"
     inkscape:window-height="1061"
     inkscape:window-x="0"
     inkscape:window-y="0"
     inkscape:window-maximized="1"
     fit-margin-top="0"
     fit-margin-left="0"
     fit-margin-right="0"
     fit-margin-bottom="0"
     units="px"
     inkscape:showpageshadow="false" />
  <metadata
     id="metadata7">
    <rdf:RDF>
      <cc:Work
         rdf:about="">
        <dc:format>image/svg+xml</dc:format>
        <dc:type
           rdf:resource="http://purl.org/dc/dcmitype/StillImage" />
        <dc:title></dc:title>
      </cc:Work>
    </rdf:RDF>
  </metadata>
  <g
     inkscape:label="Layer 1"
     inkscape:groupmode="layer"
     id="layer1"
     transform="translate(636.74486,378.10348)">
    <g
       id="g4148"
       transform="matrix(2.0606777,0,0,2.0606777,767.59404,9.1581355)">
      <path
         style="fill:#000000;fill-opacity:1;fill-rule:evenodd;stroke:#000000;stroke-width:1.09844625;stroke-linecap:round;stroke-linejoin:round;stroke-miterlimit:4;stroke-dasharray:none;stroke-opacity:1"
         d="m -489.07941,-169.73717 c -10.70496,-0.40381 -10.43795,-0.67704 -15.38343,-1.10822 -0.32636,4.59041 1.31011,5.86093 8.78722,7.02514 7.47712,1.16421 22.82514,1.83291 33.46337,6.13554 -2.60008,13.83682 -10.43249,26.73923 -18.99901,36.78301 -1.84972,2.16869 -1.87004,4.97803 -2.13406,0.70373 -0.80186,-9.03182 -1.50641,-19.55878 -8.43136,-26.14053 -5.02388,-4.77489 -14.04444,-1.14135 -16.10161,5.41318 -2.23363,7.11675 -1.61476,14.81997 -4.75318,21.71719 -0.99149,-4.36371 -4.95578,-7.92971 -10.00325,-6.10229 -3.73325,1.35161 -7.46704,-3.00428 -11.29987,-0.5924 -0.0382,-12.31323 -0.25656,-24.93809 -5.6029,-36.59154 -1.24332,-2.71008 -3.56688,-7.5283 -7.39356,-8.37924 -2.08886,-0.46451 -5.08647,-0.68806 -6.7219,0.8624 2.09345,3.1278 4.21645,6.42751 5.01523,10.24907 2.31253,11.06373 0.35496,22.39121 -0.0937,33.52282 -2.38514,0.18017 -3.71296,2.39133 -5.55121,3.60777 -1.72244,-2.56667 -4.96408,-3.21822 -7.85429,-3.33273 -1.66113,-4.51555 -9.56459,-4.68513 -10.79412,0.20955 -2.01527,0.95446 -2.35295,-1.37841 -2.06735,-3.05669 0.73564,-4.32285 0.9601,-10.91423 -3.87778,-13.03172 -4.47676,-1.95944 -10.58213,1.69647 -10.03448,7.04731 0.19844,1.9388 0.90524,5.67699 -1.31677,6.36927 -1.78603,0.55645 -2.95421,0.20705 -3.44327,1.28942 -0.94187,-2.49313 -3.5985,-4.8349 -3.92408,-15.73485 -0.0988,-3.30753 -4.44694,-7.07069 -7.57254,-4.47702 -3.33498,2.76743 -1.63809,7.62408 -2.38915,11.41917 -1.13428,5.73144 -3.89848,10.90703 -5.81373,16.36103 -1.90625,5.42833 -0.20472,11.64739 -2.43508,17.07977 -7.28097,-2.32659 -13.41071,-11.29281 -9.44308,-18.49226 3.71108,-6.73394 5.65924,-13.99324 8.97561,-20.88602 2.22475,-4.62394 6.07783,-8.05631 9.19021,-12.04339 3.21959,-4.12441 5.09535,-9.50166 10.04255,-12.0988 2.17849,-1.14365 5.22123,-1.50506 6.76924,-3.15744 -5.26224,-3.66117 -12.89304,-1.83894 -20.77822,1.44674 -5.07525,2.1148 -9.69723,5.32098 -14.02309,8.69353 -10.34762,8.06727 -14.7406,21.09105 -21.88537,31.74947 -2.46,3.66977 -6.93974,8.244 -2.80708,13.78951 -1.20204,1.39522 -1.72296,4.04631 -1.07883,7.02516 1.40215,6.484397 4.42029,3.45581 5.54983,9.602622 1.14439,6.227646 7.19114,12.067537 12.77417,15.852317 7.33637,4.973372 15.79164,7.936358 24.03943,11.040948 5.12505,1.92914 10.78819,-2.57847 11.57074,-7.950387 0.45341,-3.112531 3.51303,-4.692803 5.17355,-7.088233 3.10599,-4.480648 0.95291,-11.573266 -4.51552,-14.17723 -2.9675,-1.413067 0.77928,-7.017417 2.06102,-9.423967 0.61041,1.74153 0.85584,2.94167 2.96529,3.05368 2.37128,0.12593 2.44326,1.91037 2.57355,4.10175 0.65009,10.934029 4.32596,22.637825 -0.27923,33.062329 -1.43184,3.241174 2.3592,4.175134 4.62201,4.067964 2.80889,-0.133035 4.23933,-3.776102 4.93362,-5.239893 3.20319,-6.753365 6.91758,-21.385323 5.72239,-32.52756 -0.3165,-2.48707 2.27458,0.92376 3.79122,1.11843 2.61732,0.33596 4.76604,-1.08514 6.76925,-1.78827 3.6311,0.21848 6.99846,-1.8936 9.08745,-4.74925 0.54097,3.17859 4.89086,3.47002 4.59321,7.21757 -0.91479,11.517773 -0.81929,23.364195 -4.5247,34.426524 -0.38547,1.150794 -2.89396,3.277527 -0.009,2.839072 3.35205,-0.509459 7.24488,-0.64106 8.93532,-4.179018 5.1262,-10.728775 8.60283,-22.174527 10.43042,-33.892558 2.04781,0.99211 4.36634,0.94896 6.53651,0.4584 1.15737,10.680092 -0.62274,21.743126 -4.82783,31.547153 -0.66295,1.54565 -0.33902,3.034922 1.56864,2.659741 3.52678,-0.693616 6.48406,-2.483545 8.33522,-5.736383 3.80392,-6.684221 7.66541,-14.228565 9.37031,-24.08149 0.0709,3.113345 0.91656,5.036819 1.35762,6.544385 1.04671,3.577808 4.83771,8.508619 9.80008,7.488325 5.17239,-1.063474 8.38822,-5.894673 11.22129,-9.814847 3.15095,-4.36001 4.9479,-9.474864 6.38741,-14.615484 2.80957,4.17268 7.87294,5.36294 12.5975,5.55927 -0.23975,3.801917 0.39578,10.2027 5.18146,10.501943 1.74299,0.108989 2.6038,0.331337 3.39318,1.982716 1.89686,3.968172 5.64124,9.767473 1.96862,13.397442 -3.33019,3.291507 -8.94299,2.026123 -13.32975,3.122063 -6.15492,1.537678 -12.50243,0.889136 -18.76245,0.320489 -6.11029,-0.555047 -12.49112,1.709941 -17.19865,5.464558 2.86062,3.159509 7.66557,1.605494 11.43285,2.463283 8.3418,1.899379 16.56691,4.993584 25.33583,3.53285 5.8639,-0.976815 12.41764,-1.357404 17.89102,2.052607 3.47737,2.166465 7.75568,-1.577209 7.90891,-5.683901 0.24572,-6.58552 4.13523,-13.336657 2.0228,-19.702524 -1.43994,-4.339325 1.93939,-2.008322 4.03936,-1.129865 4.65702,1.948114 11.04997,2.878875 14.13352,-1.707192 6.11,-9.087198 7.33369,-20.504099 7.75859,-31.091769 0.34864,-8.68744 -0.52965,-18.2885 -5.6459,-25.62923 -3.92101,-5.62581 -12.26414,-3.17068 -17.67467,-1.3062 -3.14391,1.0834 -6.13054,2.69731 -8.91368,3.83396 4.03067,-8.05658 11.4509,-17.58241 15.55949,-21.88947 4.10859,-4.30707 3.9868,-6.27345 1.85376,-8.28248 -2.13304,-2.00902 -4.22646,-1.84924 -5.15527,-1.78928 -0.9288,0.06 -37.94083,3.29326 -48.6458,2.88945 z m 49.17474,38.88663 c 3.49312,-0.1166 4.25076,4.32576 4.57294,6.97376 0.91168,7.49323 0.60271,15.42035 -2.14895,22.55138 -0.90533,2.346215 -3.31506,2.881372 -5.61266,2.217459 -3.88773,-1.123389 -7.82595,-2.148259 -11.41069,-4.030919 0.28492,-8.13629 -0.64454,-16.49933 1.75905,-24.4132 4.07336,-1.69705 8.39612,-3.15013 12.84031,-3.29848 z m -59.98523,8.77312 c 2.88085,0.31979 2.75805,3.91984 3.11311,6.86697 0.41918,3.4794 0.38287,9.13611 -3.51006,10.14832 -2.83613,0.73743 -3.08963,-3.91571 -3.15642,-6.04084 -0.11243,-3.57675 1.23504,-11.23181 3.55337,-10.97445 z"
         id="path4828"
         inkscape:connector-curvature="0"
         sodipodi:nodetypes="scscscsscscsscsccccsssscsssscsssscssscssssssscssssscsccssssccssscsssccssssscsssssssssscccssssssccssssss" />
      <g
         id="g7235"
         style="fill:#ffffff;fill-opacity:1">
        <path
           sodipodi:nodetypes="ccsccsccccsscccccccssssssscc"
           inkscape:transform-center-y="-59.980036"
           inkscape:transform-center-x="-180.4827"
           inkscape:connector-curvature="0"
           inkscape:export-ydpi="71.655128"
           inkscape:export-xdpi="71.655128"
           inkscape:export-filename="/home/frode/Git/Urho3D/bin/Data/Textures/LogoLarge.png"
           id="path4243"
           d="m -440.7363,-169.85398 c -6.48256,-0.19856 -34.07162,4.32992 -60.16692,0.80922 -1.99823,5.52713 37.20685,3.57307 46.44696,7.19628 1.68105,0.65918 -5.65629,14.17371 -9.36694,22.42546 2.73516,0.66996 4.05849,1.17135 6.67834,0.71764 4.61332,-7.79521 9.47198,-16.54828 12.85887,-20.36003 3.74462,-4.21436 9.64775,-10.20409 4.11952,-10.75478 -0.17835,-0.0177 -0.36724,-0.0279 -0.56983,-0.0337 z m -29.37712,40.65362 c -4.18132,7.08868 -7.66204,11.31637 -10.18049,13.26866 -0.95101,0.73723 -1.33827,5.86942 -0.65941,6.97013 2.45636,3.98269 6.09006,2.58256 10.0155,3.64515 0.66534,-3.00599 0.79913,-5.86231 0.8239,-8.75746 -0.31464,-0.26993 -1.79459,-0.5198 -2.20532,-0.70053 0,0 1.40273,-0.85538 2.22149,-1.79321 0.16289,-4.10846 0.21307,-9.60722 -0.0157,-12.63274 z m 10.05432,37.998958 c -0.12591,0.01878 -0.26786,0.05737 -0.398,0.08223 4.50641,4.472689 5.45892,11.274616 4.33982,16.548551 -0.97186,4.580024 -4.10316,6.159444 -12.88137,6.134472 -10.04687,-0.02858 -15.83882,2.577573 -25.26194,0.832712 -4.77277,-0.883769 -11.02956,-0.654075 -13.01502,0.8239 -1.45423,1.082538 4.61521,-0.853346 12.00019,2.001746 17.94968,6.939499 32.85458,-1.823807 40.43878,3.540875 3.4354,2.430044 3.75193,-3.860051 5.56904,-16.154952 0.36097,-2.442196 -1.0949,-7.18036 -2.45554,-9.960259 -3.9415,-1.888108 -4.33297,-2.768184 -8.33596,-3.849278 z"
           style="color:#000000;clip-rule:nonzero;display:inline;overflow:visible;visibility:visible;opacity:1;isolation:auto;mix-blend-mode:normal;color-interpolation:sRGB;color-interpolation-filters:linearRGB;solid-color:#000000;solid-opacity:1;fill:#ffffff;fill-opacity:1;fill-rule:evenodd;stroke:none;stroke-width:1.20951617px;stroke-linecap:butt;stroke-linejoin:miter;stroke-miterlimit:4;stroke-dasharray:none;stroke-dashoffset:0;stroke-opacity:1;marker:none;color-rendering:auto;image-rendering:auto;shape-rendering:auto;text-rendering:auto;enable-background:accumulate" />
        <path
           sodipodi:nodetypes="sssscsssssssssssssssssssssssssss"
           inkscape:transform-center-y="-1.5672762"
           inkscape:transform-center-x="78.516572"
           inkscape:connector-curvature="0"
           id="path4235"
           d="m -612.49207,-164.64579 c -4.62554,3.08017 -9.57359,5.65498 -13.76839,10.10032 -4.79608,5.08252 -8.22329,12.07566 -12.07769,18.35708 l -9.82639,16.01383 c -1.11992,1.82511 -0.29375,5.13616 1.68539,7.3028 -1.29304,2.06093 -1.86766,2.48587 -1.89869,4.78884 -0.0747,5.54063 4.04341,1.62511 5.31623,9.834608 0.52108,3.360858 1.94476,4.604997 3.82157,7.129583 3.19542,4.298286 7.33931,6.839103 11.41129,9.054917 5.75852,3.133526 10.7505,4.326201 16.3895,7.964061 2.02439,1.305982 4.56251,1.586537 6.48991,-0.06455 2.25275,-1.929804 3.4733,-5.309644 4.92785,-8.242824 1.77775,-3.584938 2.88094,-1.615356 3.7764,-5.869446 0.543,-2.579734 -0.73538,-5.379831 -2.42506,-6.748455 -1.77469,-1.437496 -3.52386,-3.360173 -4.23357,-6.123474 -0.76328,-2.97192 0.19637,-6.24633 1.77489,-8.23345 0.7962,-1.00228 2.03737,-2.61672 1.8834,-3.65569 -0.32802,-2.21352 -0.85784,-4.1918 -0.60313,-6.28084 0.29725,-2.4381 0.85375,-6.14256 0.23512,-7.21658 -1.02226,-1.77478 -2.43226,-3.42585 -2.64898,-5.78832 -0.35339,-3.85243 0.17487,-7.75162 -0.40092,-11.57711 -0.15034,-0.99886 -1.34646,-0.51181 -1.53533,0.33706 -0.22923,1.03041 -0.3802,2.09746 -0.58295,3.14018 -2.22153,11.42442 -1.82366,13.90292 -5.83949,20.63799 -0.96075,1.6113 -0.8143,19.942719 -4.27009,21.294812 -5.10498,1.997347 -14.05847,-5.258432 -16.62925,-11.837242 -3.40328,-8.70928 2.75118,-15.97211 3.76926,-18.63872 1.46259,-3.83087 2.70668,-7.8236 4.3783,-11.48149 1.65129,-3.61342 3.66064,-6.90835 6.03723,-9.62763 5.53896,-6.33761 6.31249,-10.88093 13.00131,-15.52338 4.75231,-3.29838 9.21379,-3.47246 6.74618,-3.81376 -1.23572,-0.1709 -9.89543,1.4317 -14.9039,4.76685 z"
           style="fill:#ffffff;fill-opacity:1;fill-rule:evenodd;stroke:none;stroke-width:1.20951617px;stroke-linecap:butt;stroke-linejoin:miter;stroke-opacity:1" />
        <path
           sodipodi:nodetypes="cscsssccssssssssscssssssssc"
           inkscape:transform-center-y="48.414273"
           inkscape:transform-center-x="176.03556"
           inkscape:connector-curvature="0"
           id="path4237"
           d="m -592.18948,-119.39916 c 0.7502,-3.87693 0.74705,-5.08059 2.43261,-4.97804 1.68559,0.10253 3.1569,0.66163 3.1569,0.66163 0,0 1.5196,-7.21403 1.25865,-10.99791 -0.26095,-3.78391 1.05799,-2.61928 2.88518,-3.14111 1.82718,-0.5218 2.42551,-0.15438 2.21246,7.64988 -0.21308,7.80424 -0.0187,8.70307 -0.0187,8.70307 3.72757,0.3409 5.10083,-0.43369 5.48738,1.59713 0.0674,-1.11765 0.003,-1.6937 1.07893,-1.76266 1.40831,-0.0903 2.53914,-0.0425 3.34015,-1.75687 0.80102,-1.71435 1.59652,-2.18213 2.66532,-1.65934 1.06882,0.52279 0.26281,3.36836 1.76933,3.58771 1.50653,0.21935 6.50916,-0.69606 7.0562,1.19273 0.54704,1.88875 0.73254,9.27445 -0.62615,11.50094 -1.35867,2.22649 -4.67127,1.77356 -7.06082,1.41512 -1.33123,-0.19968 -1.50834,3.10563 -3.17111,2.33344 -1.66278,-0.77218 -0.62271,-2.71924 -1.97147,-2.73204 -1.34878,-0.0128 -3.25602,0.67123 -3.22882,-0.99108 0.0272,-1.6623 0.19152,1.54522 -1.51594,1.90452 -1.70746,0.3593 -3.1687,-1.13005 -2.6693,2.55969 0.4994,3.68974 1.0021,20.865812 -0.89174,27.165114 -1.89384,6.299309 -3.50802,10.760201 -5.35361,10.949445 -1.84559,0.189216 2.45354,-5.807625 1.52601,-19.624691 -0.92755,-13.817065 -1.33871,-21.121458 -2.4246,-22.267398 -1.08588,-1.14596 -4.93832,-0.17007 -5.24253,-3.14567 -0.30418,-2.97561 -1.09531,-6.09144 -0.69434,-8.16361 z"
           style="color:#000000;clip-rule:nonzero;display:inline;overflow:visible;visibility:visible;opacity:1;isolation:auto;mix-blend-mode:normal;color-interpolation:sRGB;color-interpolation-filters:linearRGB;solid-color:#000000;solid-opacity:1;fill:#ffffff;fill-opacity:1;fill-rule:evenodd;stroke:none;stroke-width:1.20951617px;stroke-linecap:butt;stroke-linejoin:miter;stroke-miterlimit:4;stroke-dasharray:none;stroke-dashoffset:0;stroke-opacity:1;marker:none;color-rendering:auto;image-rendering:auto;shape-rendering:auto;text-rendering:auto;enable-background:accumulate" />
        <path
           inkscape:transform-center-y="-8.5262827"
           inkscape:transform-center-x="48.145548"
           sodipodi:nodetypes="ssssssssssssssssssssssssssssssssssscsssssss"
           inkscape:connector-curvature="0"
           id="path4239"
           d="m -549.06068,-168.79542 c -0.15529,0.79417 1.89255,3.87673 2.62825,6.15062 2.63505,6.9595 2.40369,13.40992 2.57308,21.06334 0.13835,6.1039 -0.0716,11.61553 -0.62573,18.0465 -0.0869,1.00848 -0.91943,1.51359 -1.60954,1.69648 -0.73726,0.19835 -1.4756,-0.0216 -2.16805,-0.21298 -1.28391,0.26673 -1.71538,2.04241 -1.68397,3.48285 0.072,3.30344 -0.67658,6.72705 0.0255,9.94415 0.92607,1.60024 2.86224,1.89451 4.35615,1.12232 0.85965,0.54322 0.39885,1.76629 0.42407,2.78433 -0.088,8.49368 0.32523,15.598483 -1.05074,23.656895 -1.04474,6.118616 -2.30009,8.381027 -4.81065,15.013512 -0.34263,0.905158 0.84256,1.13444 1.2512,0.445976 0.73114,-0.940494 1.30569,-2.024339 1.95738,-3.035115 3.10772,-5.401675 4.72389,-10.440572 6.07888,-16.60957 1.42245,-6.730753 3.07195,-14.915128 3.16515,-22.032018 0.60558,-0.74427 1.40098,-0.071 2.07657,-0.0123 0.61515,0.10689 1.28835,0.10739 1.86469,-0.27974 1.18417,1.05047 1.91544,1.29114 2.66942,2.78807 0.79266,0.91617 2.14313,0.23135 2.73295,-0.78924 0.94361,-1.17589 2.34278,-1.80201 3.64579,-1.73539 0.90372,0.11308 1.46748,1.10578 1.54703,2.15657 0.11829,1.56228 0.22488,4.99376 0.45306,6.459643 0.59104,4.652765 0.1815,9.468712 -0.8175,14.199721 -0.95458,4.112122 -2.75396,10.23952 -5.33867,15.16759 -0.46548,0.887469 1.45842,0.292452 2.07302,-0.377227 4.9621,-5.406932 7.84014,-15.812743 8.2301,-21.078527 0.31693,-4.279666 0.6871,-6.644992 0.63055,-10.64657 -0.0161,-1.14223 0.26202,-2.27322 0.83276,-3.23667 0.66221,-1.11784 1.13069,-2.40651 1.18745,-3.79894 0.13334,-3.27144 0.0254,-6.55382 -0.52923,-9.7033 -0.20096,-1.14113 -0.45913,-2.59613 -1.38699,-3.05035 -1.31606,-0.64425 -2.8389,0.0181 -4.25648,0.13752 -2.16215,0.18188 -4.41605,0.14023 -6.31257,-1.12776 -0.99635,-0.66617 -2.50103,-0.27358 -3.15529,1.06304 -0.28922,0.59086 -0.50977,1.23446 -0.54646,1.90379 -0.69884,0.0246 -0.56204,-1.0365 -0.82985,-1.54301 -0.66378,-1.25543 -2.09933,-1.29781 -3.29056,-0.92388 -0.78062,0.24504 -0.91193,-1.12959 -0.98705,-1.88718 -0.77819,-7.84805 -0.0868,-14.80193 -1.02977,-22.25418 -0.96926,-7.6597 -1.96012,-13.1304 -6.04433,-19.19853 -0.99449,-1.47756 -3.53849,-5.75062 -3.91525,-3.82385 z"
           style="color:#000000;clip-rule:nonzero;display:inline;overflow:visible;visibility:visible;opacity:1;isolation:auto;mix-blend-mode:normal;color-interpolation:sRGB;color-interpolation-filters:linearRGB;solid-color:#000000;solid-opacity:1;fill:#ffffff;fill-opacity:1;fill-rule:evenodd;stroke:none;stroke-width:1.20951617px;stroke-linecap:butt;stroke-linejoin:miter;stroke-miterlimit:4;stroke-dasharray:none;stroke-dashoffset:0;stroke-opacity:1;marker:none;color-rendering:auto;image-rendering:auto;shape-rendering:auto;text-rendering:auto;enable-background:accumulate" />
        <path
           style="color:#000000;clip-rule:nonzero;display:inline;overflow:visible;visibility:visible;opacity:1;isolation:auto;mix-blend-mode:normal;color-interpolation:sRGB;color-interpolation-filters:linearRGB;solid-color:#000000;solid-opacity:1;fill:#ffffff;fill-opacity:1;fill-rule:evenodd;stroke:none;stroke-width:1.20951617px;stroke-linecap:butt;stroke-linejoin:miter;stroke-miterlimit:4;stroke-dasharray:none;stroke-dashoffset:0;stroke-opacity:1;marker:none;color-rendering:auto;image-rendering:auto;shape-rendering:auto;text-rendering:auto;enable-background:accumulate"
           d="m -497.8403,-145.01787 c -2.96325,0.0439 -5.2233,1.9473 -6.75349,7.51729 -1.88331,6.85535 0.45934,3.50548 -2.49286,14.18272 -1.71987,6.22026 -4.0088,13.87457 -2.45874,24.830374 1.14248,8.075006 3.6217,16.766106 12.48043,7.129611 12.23479,-13.308935 12.16194,-30.246875 9.97146,-38.958675 -2.19049,-8.71178 -4.53793,-13.5733 -8.58285,-14.45732 -0.75842,-0.16576 -1.48012,-0.25415 -2.16395,-0.244 z m -0.88531,18.1539 c 0.0616,2.5e-4 0.12404,0.004 0.18578,0.0118 4.05798,0.53355 5.99113,8.25602 5.72791,13.95402 -0.52482,11.36097 -6.94204,17.411053 -10.17619,9.3724 -3.18342,-7.91257 0.38072,-23.35335 4.2625,-23.33831 z"
           id="path4241"
           inkscape:connector-curvature="0"
           sodipodi:nodetypes="ssssssssccssc" />
        <path
           style="color:#000000;clip-rule:nonzero;display:inline;overflow:visible;visibility:visible;opacity:1;isolation:auto;mix-blend-mode:normal;color-interpolation:sRGB;color-interpolation-filters:linearRGB;solid-color:#000000;solid-opacity:1;fill:#ffffff;fill-opacity:1;fill-rule:evenodd;stroke:none;stroke-width:1.20951617px;stroke-linecap:butt;stroke-linejoin:miter;stroke-miterlimit:4;stroke-dasharray:none;stroke-dashoffset:0;stroke-opacity:1;marker:none;color-rendering:auto;image-rendering:auto;shape-rendering:auto;text-rendering:auto;enable-background:accumulate"
           d="m -434.62455,-143.21051 c -11.49638,0.63486 -19.50014,9.27291 -26.91868,7.40336 -4.05356,-1.02155 -5.67272,1.72342 -5.41466,3.9867 1.04706,9.18333 0.91921,20.346 -0.1944,31.889881 -0.40568,4.205262 2.18493,6.075441 6.14425,4.37349 4.39492,-1.889203 9.66696,5.31577 26.2131,7.22425 11.69373,1.348785 16.54675,-55.782031 0.17039,-54.877681 z m -3.84186,7.76881 c 11.01598,-2.3377 10.6821,40.474079 0.44853,38.823907 -6.20741,-1.000947 -18.35313,-4.230087 -18.88982,-6.661307 -1.35269,-6.12767 0.0301,-26.10635 1.6311,-26.51543 1.7539,-0.44815 8.22251,-3.82478 16.81019,-5.64717 z"
           id="path4245"
           inkscape:connector-curvature="0"
           sodipodi:nodetypes="ssssssssssss" />
      </g>
    </g>
  </g>
</svg>
