<?xml version="1.0" encoding="UTF-8" standalone="no"?>
<!-- Created with Inkscape (http://www.inkscape.org/) -->

<svg
   xmlns:dc="http://purl.org/dc/elements/1.1/"
   xmlns:cc="http://creativecommons.org/ns#"
   xmlns:rdf="http://www.w3.org/1999/02/22-rdf-syntax-ns#"
   xmlns:svg="http://www.w3.org/2000/svg"
   xmlns="http://www.w3.org/2000/svg"
   xmlns:sodipodi="http://sodipodi.sourceforge.net/DTD/sodipodi-0.dtd"
   xmlns:inkscape="http://www.inkscape.org/namespaces/inkscape"
   width="800"
   height="600"
   viewBox="0 0 799.99999 600.00001"
   id="svg2"
   version="1.1"
   inkscape:version="0.91 r13725"
   sodipodi:docname="urho3d_nofin.svg"
   inkscape:export-filename="/home/frode/urho3d.png"
   inkscape:export-xdpi="36"
   inkscape:export-ydpi="36">
  <defs
     id="defs4" />
  <sodipodi:namedview
     id="base"
     pagecolor="#858585"
     bordercolor="#666666"
     borderopacity="1.0"
     inkscape:pageopacity="0"
     inkscape:pageshadow="2"
     inkscape:zoom="0.70433416"
     inkscape:cx="342.69114"
     inkscape:cy="146.71804"
     inkscape:document-units="px"
     inkscape:current-layer="g4148"
     showgrid="false"
     showborder="true"
     inkscape:snap-global="false"
     inkscape:window-width="1920"
     inkscape:window-height="1061"
     inkscape:window-x="0"
     inkscape:window-y="0"
     inkscape:window-maximized="1"
     fit-margin-top="0"
     fit-margin-left="0"
     fit-margin-right="0"
     fit-margin-bottom="0"
     units="px" />
  <metadata
     id="metadata7">
    <rdf:RDF>
      <cc:Work
         rdf:about="">
        <dc:format>image/svg+xml</dc:format>
        <dc:type
           rdf:resource="http://purl.org/dc/dcmitype/StillImage" />
        <dc:title></dc:title>
      </cc:Work>
    </rdf:RDF>
  </metadata>
  <g
     inkscape:label="Layer 1"
     inkscape:groupmode="layer"
     id="layer1"
     transform="translate(636.74486,678.10348)">
    <g
       id="g4148"
       transform="matrix(0.91037678,0,0,0.91037678,-21.117957,-36.427409)">
      <path
         style="fill:#000000;fill-opacity:1;fill-rule:evenodd;stroke:none;stroke-width:1.20951617px;stroke-linecap:butt;stroke-linejoin:miter;stroke-opacity:1"
         d="m 688.59375,119.94727 c -0.48881,0.003 -0.98187,0.0208 -1.47852,0.0527 -33.03195,2.12253 -63.3375,7.25184 -96.31835,8.55859 -28.04617,1.11124 -66.11237,1.14335 -95.37891,-3.60351 -7.12172,3.2737 -1.65351,25.2564 15.00195,29.24804 35.89748,8.6032 68.24701,11.16703 101.85547,24.57813 -7.90081,40.29176 -25.21571,71.65125 -47.36719,98.64844 -2.63385,5.27338 -2.71352,1.50611 -2.70312,-2.69922 -1.88977,-25.07293 -7.21366,-52.14576 -24.41406,-71.03711 -13.07887,-14.36464 -39.5703,-10.89451 -50.17774,6.32226 -13.01047,21.1171 -8.46692,46.86741 -16.45508,69.26563 -4.48525,-11.00123 -17.1463,-17.53026 -28.61132,-13.69336 -7.35078,1.96931 -13.90837,-1.68698 -20.5586,-3.79297 -3.70221,-0.58648 -7.53189,-0.11859 -11.05859,1.11133 -0.3327,-45.01322 4.12692,-82.15604 -26.17969,-124.27539 -5.68976,-7.90749 -8.96192,-13.30397 -19.62305,-13.73047 -14.95727,-0.59838 -24.79955,2.47918 -15.92383,13.12109 22.87712,27.42949 13.37529,85.23551 11.48633,125.5293 -5.5355,1.03975 -9.91759,6.84414 -13.24218,9.38867 -5.2524,-6.53122 -14.29615,-8.44611 -21.92579,-8.95312 -6.7076,-14.21725 -31.20738,-14.61607 -36.50195,0.9375 -3.67697,1.04684 0.30623,-7.29987 -0.79687,-9.29492 0.9884,-13.26004 1.16646,-29.85116 -10.16016,-38.93164 -14.50868,-8.40248 -37.77268,1.21529 -37.48633,19.3164 -0.59001,6.65099 1.37105,13.96683 -0.94336,20.20117 -2.90418,0.39216 -5.71692,1.89041 -8.03711,3.37891 -4.31876,-9.09354 -8.44839,-17.71584 -9.1289,-28.35547 -1.39754,-21.84994 -3.17448,-23.49908 -9.07813,-30.36133 -9.40157,-10.92816 -27.65088,-5.45994 -27.32031,15.78907 0.36522,23.47624 -6.66912,47.1532 -18.29883,67.82617 -3.76413,16.66119 -0.86646,34.31826 -6.45703,50.61523 -18.99691,-7.86638 -32.88576,-31.28056 -23.64844,-51.2207 6.48365,-12.35935 12.56139,-24.94455 16.72461,-38.47461 6.62737,-21.97709 17.36231,-43.15987 32.33399,-56.97656 15.43145,-14.24098 11.10871,-35.80863 46.80859,-47.52149 24.59246,-8.06859 -4.20926,-19.2487 -30.05469,-13.83789 -31.9823,6.6956 -40.0953,15.82887 -50.2207,22.1543 -10.61657,6.63222 -27.06749,15.26893 -44.4082,41.20508 -18.363196,27.46543 -32.166182,57.8165 -50.457035,85.16601 -4.634218,9.67008 -5.722414,21.59173 -0.699219,31.33594 -4.720759,12.95916 -3.957701,29.54419 7.767578,38.58984 8.192363,6.16228 5.849016,17.7413 10.927735,25.89454 12.166211,21.90663 33.163641,37.56228 55.281251,48.56835 15.66502,7.64184 31.23342,12.75344 46.76758,20.57227 12.29562,6.18878 27.80833,2.65771 36.76953,-7.87695 9.83613,-11.56323 3.87632,-23.09361 19.45312,-34.1211 5.10482,-3.61391 8.80772,-16.88816 6.69336,-29.11133 -2.11433,-12.22313 -9.9364,-20.36917 -16.49804,-21.83007 -6.99081,-1.55647 -1.9143,-16.85432 1.70507,-22.4961 3.00475,4.95401 8.30296,8.23347 13.89649,9.45117 3.51701,37.55824 5.87321,48.92025 6.34765,71.48829 0.39636,18.85394 -3.09831,25.97798 -7.38476,41.46875 -3.57806,12.93071 20.52921,15.09851 24.39453,10.16601 2.78045,-3.54811 8.70517,-9.91007 12.375,-18.44726 9.6992,-22.5634 15.82613,-42.65709 16.89062,-70.56836 0.3175,-8.32509 -0.43611,-16.76555 -0.71679,-25.00977 7.86909,6.26737 20.16076,4.82569 27.2207,-2.00781 10.43658,0.93636 20.97538,-4.07133 27.57031,-12.07422 2.30185,5.15015 8.93222,7.5065 11.34766,11.46875 0.43093,36.78275 -4.10699,96.58426 -16.53516,116.60938 -4.04413,6.51617 -2.1238,7.81447 13.85352,5.77539 12.93272,-1.65052 15.26844,-3.83162 19.23047,-9.78321 12.59008,-18.91224 28.62649,-70.87916 33.39062,-105.71094 4.54948,1.7501 9.60445,1.68629 14.33789,0.80469 3.28532,25.70322 -5.12031,71.16556 -15.51953,94.56641 -2.97928,11.44424 5.72037,12.64594 18.41016,7.88867 10.94092,-4.10163 10.92931,-5.6734 16.78125,-15.30859 12.60099,-20.74745 23.05577,-39.9518 25.59375,-63.60547 3.37343,13.1643 8.98532,29.76042 24.33984,32.4375 12.10556,2.87845 23.94505,-3.83139 31.20508,-13.1875 15.96453,-16.07564 26.21733,-36.99261 32.39258,-58.59766 8.01741,9.74435 21.13792,12.75642 33.15625,13.68164 -0.36408,12.03767 2.2593,27.89186 15.74219,31.74024 3.14705,1.2522 8.36669,-1.19545 7.04297,4.30078 1.95753,12.50043 6.20277,25.07533 5.2246,37.73047 -4.81998,3.45883 -12.28349,2.96651 -18.25781,3.76367 -21.73345,2.89989 -38.25389,8.31318 -60.10742,5.24414 -15.14283,-2.1266 -35.4822,-3.34804 -56.50977,9.01172 -7.86959,4.62568 -13.25813,10.3617 -6.48437,16.56055 6.11598,5.5969 14.66273,5.01508 22.54883,5.35351 25.347,1.08772 48.64635,15.1251 74.71484,13.59375 20.39434,-1.19803 48.43352,-8.29158 61.55664,2.40039 9.94269,8.10076 28.66008,2.47068 30.87696,-11.20703 3.0799,-19.00242 6.11739,-33.91063 8.96874,-55.74609 0.52701,-4.03569 0.68067,-8.17255 0.5625,-12.21094 14.00062,5.38811 42.10647,7.44132 51.36329,-6.58985 15.24105,-23.10186 15.05266,-50.59041 18.39453,-77.17382 3.78612,-30.11739 6.26161,-65.70957 -6.30664,-93.85352 -7.7056,-17.25503 -33.29571,-20.0503 -50.11719,-13.43555 -9.72929,2.42221 -21.73155,6.27819 -31.06836,9.78711 23.72346,-45.35107 36.52818,-49.06878 49.70117,-69.92968 7.90562,-12.51944 -3.23571,-26.11625 -18.38867,-26.02539 z m 6.14063,141.32421 c 0.0167,0.94619 0.0322,1.89174 0.0488,2.8379 0.23256,26.41186 -0.26295,53.79897 -5.40625,79.22656 -13.29887,-2.11013 -26.58501,-5.47651 -38.53906,-11.82422 0.64013,-20.92065 -1.56299,-42.32954 4.1543,-62.75 12.47517,-5.48866 26.48325,-5.38566 39.74219,-7.49024 z m -185.32227,20.90821 c 5.89052,-0.002 8.81135,27.86124 4.91601,37.42578 -3.89535,9.56454 -9.45963,14.06575 -11.68554,-1.125 -2.15636,-14.71602 1.0364,-36.29987 6.76953,-36.30078 z"
         transform="matrix(1.0984463,0,0,1.0984463,-676.23309,-704.8467)"
         id="path4828"
         inkscape:connector-curvature="0"
         sodipodi:nodetypes="ccscscccssccccssscccccccccsssccccssssscccccsssssccsssssccccssscccssccccccccssssssssscsssccsccscccccsccsc" />
      <path
         style="fill:#ffffff;fill-opacity:1;fill-rule:evenodd;stroke:none;stroke-width:1.20951617px;stroke-linecap:butt;stroke-linejoin:miter;stroke-opacity:1"
         d="m -486.12463,-542.52203 c -15.18593,10.43039 -31.43069,19.14946 -45.20248,34.20275 -15.7458,17.21095 -26.99755,40.89187 -39.65179,62.16266 l -32.26063,54.22772 c -3.67678,6.18037 -0.9644,17.39261 5.53324,24.72951 -4.24514,6.97893 -6.13164,8.41792 -6.23354,16.21649 -0.24523,18.76227 13.27478,5.50312 17.45353,33.30299 1.71073,11.38089 6.38474,15.59393 12.54644,24.14294 10.49078,14.55531 24.0954,23.1593 37.46397,30.66271 18.90556,10.61107 35.29453,14.64984 53.80775,26.96874 6.64616,4.42246 14.97895,5.3725 21.30675,-0.21848 7.39593,-6.53489 11.40308,-17.98008 16.17843,-27.91272 5.83648,-12.13969 9.45832,-5.47007 12.39813,-19.87573 1.78272,-8.73577 -2.41427,-18.21775 -7.96162,-22.85233 -5.82639,-4.86779 -11.56902,-11.37858 -13.89904,-20.73596 -2.5059,-10.06382 0.64468,-21.15197 5.82705,-27.88096 2.61396,-3.39403 6.68883,-8.86101 6.18336,-12.37929 -1.07693,-7.49564 -2.81636,-14.19471 -1.98014,-21.26884 0.97589,-8.25615 2.80294,-20.8006 0.77193,-24.43756 -3.35615,-6.00995 -7.98528,-11.60095 -8.69675,-19.60098 -1.16021,-13.04552 0.57408,-26.24938 -1.31628,-39.20364 -0.49358,-3.38245 -4.42049,-1.73315 -5.04056,1.14139 -0.75261,3.48927 -1.24823,7.10264 -1.91389,10.6336 -7.29339,38.68658 -5.98716,47.07953 -19.1714,69.88655 -3.15417,5.45633 -2.67337,67.53211 -14.01897,72.11072 -16.75994,6.76362 -46.15481,-17.80663 -54.59483,-40.0845 -11.17317,-29.4923 9.0323,-54.08644 12.37473,-63.11641 4.80175,-12.97251 8.88618,-26.49308 14.37421,-38.87983 5.4213,-12.23612 12.0181,-23.39379 19.8206,-32.60211 18.18472,-21.46105 20.72429,-36.84614 42.68411,-52.56688 15.6021,-11.16934 30.24942,-11.75882 22.14809,-12.91454 -4.05693,-0.57875 -32.4873,4.84814 -48.9304,16.14199 z"
         id="path4235"
         inkscape:connector-curvature="0"
         inkscape:transform-center-x="176.45924"
         inkscape:transform-center-y="-3.6330241"
         sodipodi:nodetypes="sssscsssssssssssssssssssssssssss" />
      <path
         style="color:#000000;clip-rule:nonzero;display:inline;overflow:visible;visibility:visible;opacity:1;isolation:auto;mix-blend-mode:normal;color-interpolation:sRGB;color-interpolation-filters:linearRGB;solid-color:#000000;solid-opacity:1;fill:#ffffff;fill-opacity:1;fill-rule:evenodd;stroke:none;stroke-width:1.20951617px;stroke-linecap:butt;stroke-linejoin:miter;stroke-miterlimit:4;stroke-dasharray:none;stroke-dashoffset:0;stroke-opacity:1;marker:none;color-rendering:auto;image-rendering:auto;shape-rendering:auto;text-rendering:auto;enable-background:accumulate"
         d="m -419.46999,-389.30315 c 2.46295,-13.12845 2.4526,-17.20441 7.98642,-16.85716 5.53387,0.34719 10.36428,2.2405 10.36428,2.2405 0,0 4.98897,-24.42892 4.13226,-37.24232 -0.85674,-12.81347 3.47341,-8.86967 9.47218,-10.63671 5.99877,-1.767 7.96313,-0.52279 7.26364,25.90478 -0.69953,26.42757 -0.0612,29.47126 -0.0612,29.47126 12.23783,1.15442 16.74632,-1.46858 18.01539,5.40839 0.22127,-3.7847 0.009,-5.73541 3.54219,-5.96892 4.62357,-0.30576 8.33615,-0.14387 10.96594,-5.94928 2.62978,-5.80534 5.24144,-7.38935 8.75041,-5.61904 3.50899,1.77034 0.86278,11.40631 5.80881,12.1491 4.94603,0.74278 21.36997,-2.35707 23.16595,4.0389 1.79594,6.39593 2.40494,31.40614 -2.05568,38.94572 -4.46063,7.53958 -15.33607,6.00583 -23.18116,4.79204 -4.37046,-0.67619 -4.95192,10.5166 -10.41093,7.90173 -5.45898,-2.61485 -2.04437,-9.20818 -6.47245,-9.25152 -4.4281,-0.0435 -10.6897,2.273 -10.60041,-3.35609 0.0892,-5.62908 0.62878,5.23256 -4.97691,6.44929 -5.60572,1.21668 -10.40306,-3.82669 -8.76348,8.66788 1.63954,12.49461 3.28994,70.65801 -2.92765,91.98938 -6.2176,21.33138 -13.66143,36.43732 -19.72061,37.07816 -6.05919,0.64074 10.19949,-19.66641 7.15436,-66.45519 -3.04518,-46.78879 -4.39507,-71.52373 -7.9601,-75.40422 -3.56501,-3.88057 -16.21282,-0.57592 -17.21154,-10.65222 -0.99865,-10.0763 -3.59597,-20.62746 -2.27956,-27.64446 z"
         id="path4237"
         inkscape:connector-curvature="0"
         inkscape:transform-center-x="395.62466"
         inkscape:transform-center-y="112.22861"
         sodipodi:nodetypes="cscsssccssssssssscssssssssc" />
      <path
         style="color:#000000;clip-rule:nonzero;display:inline;overflow:visible;visibility:visible;opacity:1;isolation:auto;mix-blend-mode:normal;color-interpolation:sRGB;color-interpolation-filters:linearRGB;solid-color:#000000;solid-opacity:1;fill:#ffffff;fill-opacity:1;fill-rule:evenodd;stroke:none;stroke-width:1.20951617px;stroke-linecap:butt;stroke-linejoin:miter;stroke-miterlimit:4;stroke-dasharray:none;stroke-dashoffset:0;stroke-opacity:1;marker:none;color-rendering:auto;image-rendering:auto;shape-rendering:auto;text-rendering:auto;enable-background:accumulate"
         d="m -277.87547,-556.57397 c -0.50984,2.68931 6.21336,13.1278 8.6287,20.82788 8.65104,23.56699 7.89146,45.41007 8.44759,71.3269 0.45421,20.66966 -0.23512,39.33372 -2.05434,61.11094 -0.28529,3.41506 -3.01854,5.1255 -5.2842,5.74483 -2.42049,0.67165 -4.84452,-0.0733 -7.11782,-0.72122 -4.2152,0.90321 -5.63172,6.91622 -5.52862,11.79398 0.23645,11.18646 -2.22122,22.77984 0.0837,33.67394 3.04033,5.4189 9.39688,6.41538 14.30151,3.80052 2.82226,1.8395 1.30942,5.98123 1.39224,9.42861 -0.28895,28.76217 1.06775,52.82119 -3.44965,80.10945 -3.42995,20.71949 -7.55135,28.38071 -15.79366,50.84035 -1.12486,3.06513 2.76617,3.84155 4.10776,1.51021 2.40038,-3.18481 4.28665,-6.85504 6.4262,-10.27782 10.20283,-18.29175 15.50882,-35.35499 19.95733,-56.24511 4.67002,-22.79237 10.0854,-50.50717 10.39138,-74.60714 1.98817,-2.52033 4.59951,-0.24034 6.81755,-0.0417 2.01954,0.36196 4.22968,0.36367 6.12188,-0.94728 3.8877,3.5572 6.28847,4.37221 8.76386,9.44126 2.60233,3.10243 7.03602,0.78343 8.97244,-2.67263 3.09793,-3.98192 7.69151,-6.10217 11.96937,-5.87653 2.96696,0.3829 4.81778,3.74449 5.07899,7.3028 0.38832,5.29032 0.73828,16.91039 1.48739,21.8743 1.94043,15.75569 0.59589,32.06398 -2.68389,48.08459 -3.13395,13.92492 -9.0414,34.67415 -17.52719,51.36209 -1.52817,3.00526 4.78811,0.99035 6.80587,-1.27741 16.29089,-18.30951 25.73965,-53.54676 27.01992,-71.3783 1.04049,-14.49225 2.25579,-22.50199 2.07013,-36.05257 -0.0529,-3.86792 0.86021,-7.6978 2.73398,-10.96032 2.17411,-3.78536 3.71215,-8.14918 3.89848,-12.86439 0.43779,-11.07808 0.0834,-22.19323 -1.73749,-32.85833 -0.65974,-3.8642 -1.50734,-8.79128 -4.55356,-10.32941 -4.32072,-2.18163 -9.32029,0.0615 -13.97428,0.46568 -7.0985,0.61591 -14.49818,0.47486 -20.72455,-3.81894 -3.27109,-2.25585 -8.21106,-0.92643 -10.35902,3.59979 -0.94953,2.00083 -1.67363,4.18024 -1.79406,6.44683 -2.29434,0.0834 -1.84521,-3.50993 -2.72447,-5.22513 -2.17921,-4.25126 -6.89221,-4.39477 -10.8031,-3.12854 -2.56283,0.8298 -2.99393,-3.82513 -3.24053,-6.39055 -2.55484,-26.57593 -0.28482,-50.12388 -3.3808,-75.35946 -3.18214,-25.93809 -6.4352,-44.46353 -19.84392,-65.01208 -3.26496,-5.00347 -11.61708,-19.47335 -12.854,-12.94873 z"
         id="path4239"
         inkscape:connector-curvature="0"
         sodipodi:nodetypes="ssssssssssssssssssssssssssssssssssscsssssss"
         inkscape:transform-center-x="108.20311"
         inkscape:transform-center-y="-19.764686" />
      <path
         sodipodi:nodetypes="ssssssssccssc"
         inkscape:connector-curvature="0"
         id="path4241"
         d="m -109.71583,-476.05593 c -9.72851,0.14882 -17.14841,6.59414 -22.17211,25.45586 -6.18302,23.21427 1.50801,11.87061 -8.18423,48.027 -5.64641,21.06372 -13.16112,46.98354 -8.07218,84.08323 3.75082,27.34445 11.89024,56.77515 40.97402,24.14305 40.167546,-45.06812 39.928384,-102.42515 32.736901,-131.92597 -7.191499,-29.50074 -14.898304,-45.96334 -28.178011,-48.9569 -2.48995,-0.56131 -4.85935,-0.86061 -7.10439,-0.82627 z m -2.9065,61.47467 c 0.20228,8.2e-4 0.4072,0.0133 0.60992,0.0403 13.322563,1.80673 19.669227,27.95736 18.805061,47.25255 -1.723012,38.47172 -22.791151,58.95914 -33.409071,31.73779 -10.45136,-26.79436 1.24996,-79.08153 13.99409,-79.03064 z"
         style="color:#000000;clip-rule:nonzero;display:inline;overflow:visible;visibility:visible;opacity:1;isolation:auto;mix-blend-mode:normal;color-interpolation:sRGB;color-interpolation-filters:linearRGB;solid-color:#000000;solid-opacity:1;fill:#ffffff;fill-opacity:1;fill-rule:evenodd;stroke:none;stroke-width:1.20951617px;stroke-linecap:butt;stroke-linejoin:miter;stroke-miterlimit:4;stroke-dasharray:none;stroke-dashoffset:0;stroke-opacity:1;marker:none;color-rendering:auto;image-rendering:auto;shape-rendering:auto;text-rendering:auto;enable-background:accumulate" />
      <path
         inkscape:connector-curvature="0"
         id="path4243"
         d="m 77.760934,-560.16056 c -21.282593,-0.67238 -111.858053,14.66528 -197.530484,2.7431 -6.56036,18.71655 116.2262336,17.21757 134.126289,39.03861 3.82914,4.66786 -4.5247074,30.03389 -16.7070164,57.97676 8.979692,2.26873 17.7123364,2.084 26.3134524,0.54757 15.145779,-26.39695 31.022929,-50.86511 42.142328,-63.77286 12.293791,-14.27109 31.676601,-34.54951 13.527051,-36.41437 -0.5855,-0.0596 -1.20648,-0.0986 -1.87162,-0.11866 z m -99.146655,139.30853 c -12.064386,22.72906 -24.079053,41.05157 -30.721946,43.29011 -3.755129,1.26545 -4.397527,19.87563 -2.168774,23.60299 8.06442,13.48662 16.273326,8.74817 29.160797,12.34643 0.158695,-17.43824 1.741541,-35.06949 1.915963,-52.17028 0.857711,-8.29052 0.987396,-17.77911 1.81396,-27.06925 z m 35.706994,127.03433 c -0.413378,0.0637 -0.876681,0.19482 -1.303929,0.27896 11.099926,70.06737 13.87133,66.69903 -35.742445,72.98886 -32.738261,4.15041 -45.231754,9.61774 -76.168422,3.7091 -15.669287,-2.99272 -35.282437,0.7189 -41.800827,5.7238 -4.77429,3.66576 15.15164,-2.89058 39.39699,6.77763 58.929854,23.49926 107.8653216,-6.17642 132.764734,11.99005 11.278639,8.22885 12.971684,-8.39674 21.03124,-62.58472 1.229005,-8.26318 1.398784,-15.27287 0.696304,-21.47978 -12.940183,-6.39367 -25.731607,-13.74296 -38.873645,-17.4039 z"
         style="color:#000000;clip-rule:nonzero;display:inline;overflow:visible;visibility:visible;opacity:1;isolation:auto;mix-blend-mode:normal;color-interpolation:sRGB;color-interpolation-filters:linearRGB;solid-color:#000000;solid-opacity:1;fill:#ffffff;fill-opacity:1;fill-rule:evenodd;stroke:none;stroke-width:1.20951617px;stroke-linecap:butt;stroke-linejoin:miter;stroke-miterlimit:4;stroke-dasharray:none;stroke-dashoffset:0;stroke-opacity:1;marker:none;color-rendering:auto;image-rendering:auto;shape-rendering:auto;text-rendering:auto;enable-background:accumulate" />
      <path
         inkscape:connector-curvature="0"
         id="path4245"
         d="m 106.76187,-463.58317 c -25.707966,-1.38722 -69.633324,29.60073 -98.9376634,20.97699 -14.331435,-5.204 -12.7786,99.64948 -12.960997,120.53222 -0.182441,20.88276 3.201099,17.23689 18.0238884,10.80756 14.822789,-6.42928 75.929066,38.67059 94.484332,27.66147 18.55523,-11.0092 33.0138,-148.146 13.87412,-172.96173 -3.58879,-4.6529 -8.55121,-6.69635 -14.48368,-7.01651 z m -4.24374,28.20546 c 3.17274,0.32457 5.38918,0.97949 6.2288,2.02962 5.37358,6.72061 -0.30692,114.28701 -7.57507,122.49725 -7.268246,8.21023 -74.716302,-13.27527 -74.64232,-21.22672 0.074,-7.95139 -0.290591,-81.26801 7.233995,-89.72668 6.612513,-7.43339 51.622589,-15.32574 68.754595,-13.57347 z"
         style="color:#000000;clip-rule:nonzero;display:inline;overflow:visible;visibility:visible;opacity:1;isolation:auto;mix-blend-mode:normal;color-interpolation:sRGB;color-interpolation-filters:linearRGB;solid-color:#000000;solid-opacity:1;fill:#ffffff;fill-opacity:1;fill-rule:evenodd;stroke:none;stroke-width:1.20951617px;stroke-linecap:butt;stroke-linejoin:miter;stroke-miterlimit:4;stroke-dasharray:none;stroke-dashoffset:0;stroke-opacity:1;marker:none;color-rendering:auto;image-rendering:auto;shape-rendering:auto;text-rendering:auto;enable-background:accumulate" />
    </g>
  </g>
</svg>
